<?xml version="1.0" encoding="utf-8"?>
<!-- Generator: Adobe Illustrator 25.4.1, SVG Export Plug-In . SVG Version: 6.00 Build 0)  -->
<svg version="1.1" id="Camada_1" xmlns="http://www.w3.org/2000/svg" xmlns:xlink="http://www.w3.org/1999/xlink" x="0px" y="0px"
	 viewBox="0 0 904.8 185.4" style="enable-background:new 0 0 904.8 185.4;" xml:space="preserve">
<style type="text/css">
	.st0{fill:#F99317;}
	.st1{fill:#2CAFC7;}
	.st2{fill:#9E9D9D;}
	.st3{fill:#D7D4D5;}
	.st4{fill:#55177A;}
</style>
<g id="Camada_2_00000181797666696548505040000018041831126842076317_">
	<g id="Camada_1-2">
		<circle class="st0" cx="329.2" cy="131.7" r="18"/>
		<circle class="st1" cx="532.7" cy="131.7" r="18"/>
		<path class="st2" d="M63.8,43.3h28.7v95.6H73.9V74.3c0-1.9,0-4.5,0.1-7.8c0.1-3.3,0.1-5.9,0.1-7.8l-18.1,80.2H36.5l-18-80.2
			c0,1.8,0,4.4,0.1,7.8s0.1,6,0.1,7.8v64.7H0V43.3h29.1l17.4,75.2L63.8,43.3z"/>
		<path class="st2" d="M137.5,95.9c2.5-0.2,5-0.8,7.4-1.6c2.7-1.1,4-2.9,4-5.2c0-2.9-1-4.9-3.1-6c-2-1.1-5-1.7-9-1.7
			c-4.4,0-7.6,1.1-9.4,3.2c-1.4,1.9-2.3,4.1-2.6,6.5H107c0.4-6.2,2.1-11.3,5.2-15.2c4.9-6.2,13.3-9.3,25.3-9.3
			c7.2-0.1,14.3,1.4,20.7,4.6c6,3.1,9,8.9,9,17.4V121c0,2.2,0.1,5,0.1,8.2c0.1,2.4,0.5,4.1,1.1,4.9c0.7,0.9,1.6,1.7,2.7,2.1v2.7
			h-20.1c-0.5-1.3-0.9-2.6-1.2-4c-0.2-1.2-0.4-2.7-0.5-4.3c-2.6,2.8-5.6,5.2-8.9,7.1c-4.1,2.3-8.8,3.5-13.6,3.4
			c-6.4,0-11.8-1.8-16-5.5c-4.2-3.7-6.3-8.8-6.3-15.5c0-8.7,3.4-15,10.1-18.9c3.7-2.1,9.1-3.6,16.3-4.5L137.5,95.9z M148.8,104.6
			c-1.1,0.7-2.3,1.3-3.6,1.8c-1.6,0.6-3.3,1-5,1.3l-4.2,0.8c-4,0.7-6.8,1.5-8.5,2.5c-2.8,1.6-4.5,4.6-4.4,7.9c0,3.2,0.9,5.4,2.7,6.8
			c1.9,1.4,4.1,2.2,6.5,2.1c4,0,7.9-1.2,11.2-3.5c3.4-2.3,5.2-6.6,5.3-12.8L148.8,104.6z"/>
		<path class="st2" d="M183.2,43.6h18.2v51.6l23.3-26.7h23l-25.3,26.3l26.3,44.1h-22.5L209,108.7l-7.7,8V139h-18.2V43.6z"/>
		<path class="st2" d="M303.4,69.7c5,2.3,9.2,5.9,12.2,10.5c3,4.4,4.9,9.4,5.6,14.6c0.6,4.6,0.8,9.3,0.6,14h-51.5
			c0.3,7.1,2.8,12.1,7.4,14.9c3.1,1.8,6.6,2.8,10.2,2.7c5.9,0.5,11.5-2.8,14-8.1h18.9c-0.5,4.2-2.8,8.4-6.9,12.8
			c-6.3,6.9-15.2,10.3-26.6,10.3c-9.1,0.1-17.9-3-24.9-8.7c-7.2-5.8-10.8-15.2-10.8-28.3c0-12.2,3.2-21.6,9.7-28.2
			c6.5-6.5,14.9-9.8,25.3-9.8C292.5,66.3,298.2,67.4,303.4,69.7z M275.7,85.7c-2.8,3-4.5,6.9-4.9,11h31.9c-0.3-4.9-2-8.6-4.9-11.2
			c-3.1-2.6-7-3.9-11-3.8C282,81.6,278.3,82.9,275.7,85.7L275.7,85.7z"/>
		<path class="st3" d="M329.1,82V68.9h9.9V49.2h18.3v19.7h11.5V82h-11.5v37.4c0,2.9,0.4,4.7,1.1,5.4s3,1.1,6.8,1.1h1.8
			c0.6,0,1.2-0.1,1.9-0.1v13.8l-8.8,0.3c-8.7,0.3-14.7-1.2-17.9-4.5c-2.1-2.1-3.1-5.4-3.1-9.8V82H329.1z"/>
		<path class="st3" d="M431.5,68.6c3.5,1.5,6.5,3.9,8.8,7c1.8,2.4,3,5.2,3.5,8.2c0.5,4.5,0.7,9.1,0.6,13.7V139h-18.9V95.9
			c0.1-3.2-0.5-6.4-1.9-9.2c-1.7-3.3-4.9-4.9-9.5-4.9c-4.9,0-8.5,1.6-11,4.9c-2.5,3.3-3.8,7.9-3.8,14v38.3h-18.5V43.6h18.5v33.7
			c2.2-3.7,5.4-6.7,9.3-8.6c3.5-1.6,7.3-2.4,11.1-2.4C423.7,66.3,427.7,67.1,431.5,68.6z"/>
		<path class="st3" d="M507.9,69.7c5,2.2,9.2,5.9,12.2,10.5c3,4.4,4.9,9.4,5.6,14.6c0.6,4.6,0.8,9.3,0.6,14h-51.5
			c0.3,7.1,2.8,12.1,7.4,14.9c3.1,1.8,6.6,2.8,10.2,2.7c4.2,0,7.6-1.1,10.3-3.2c1.6-1.4,2.9-3,3.8-4.9h18.9
			c-0.5,4.2-2.8,8.4-6.8,12.8c-6.3,6.9-15.2,10.3-26.6,10.3c-9.1,0.1-17.9-3-24.9-8.7c-7.2-5.8-10.8-15.2-10.8-28.3
			c0-12.2,3.2-21.6,9.7-28.2c6.5-6.5,14.9-9.8,25.3-9.8C497,66.2,502.7,67.4,507.9,69.7z M480.2,85.7c-2.8,3-4.5,6.9-4.9,11h31.9
			c-0.3-4.9-2-8.6-4.9-11.2c-3.1-2.6-7-3.9-11-3.8C486.5,81.6,482.9,82.9,480.2,85.7L480.2,85.7z"/>
		<path class="st4" d="M542.3,0l18.8,81.7l4.1,22.7l4.1-22.3L585.5,0h31.5l17,81.7l4.3,22.8l4.4-21.9l19-82.6H692l-40.1,142.7h-28.6
			l-17.2-83.4l-5-27.6l-5,27.6l-17.3,83.4h-27.7L510.6,0H542.3z"/>
		<path class="st4" d="M742.3,78.5c5.1-0.7,8.8-1.5,11-2.4c4-1.7,5.9-4.3,6-7.8c0-4.3-1.5-7.3-4.6-9c-3-1.7-7.5-2.5-13.4-2.5
			c-6.6,0-11.3,1.6-14,4.8c-2.1,2.8-3.5,6.2-3.9,9.7h-26.6c0.6-9.2,3.2-16.8,7.8-22.8c7.3-9.3,19.9-13.9,37.7-13.9
			c11.6,0,21.9,2.3,30.9,6.9s13.5,13.2,13.5,26v48.4c0,3.3,0.1,7.4,0.2,12.2c0.2,3.6,0.7,6.1,1.6,7.4c1.1,1.4,2.5,2.5,4.1,3.2v4.1
			h-30c-0.8-1.9-1.4-3.9-1.7-6c-0.3-1.9-0.6-4-0.8-6.4c-3.9,4.2-8.3,7.7-13.2,10.6c-6.2,3.5-13.2,5.3-20.3,5.1
			c-9.6,0-17.5-2.7-23.8-8.2s-9.4-13.2-9.4-23.2c0-13,5-22.4,15.1-28.2c5.5-3.2,13.7-5.4,24.4-6.8L742.3,78.5z M759.2,91.4
			c-1.7,1.1-3.5,2-5.3,2.7c-2.4,0.8-4.9,1.5-7.4,1.9l-6.3,1.2c-5.9,1-10.1,2.3-12.7,3.8c-4.3,2.5-6.5,6.4-6.5,11.7
			c0,4.7,1.3,8.1,4,10.2c2.8,2.1,6.2,3.2,9.7,3.1c6,0,11.8-1.8,16.7-5.2c5.1-3.5,7.7-9.9,7.9-19.1L759.2,91.4z"/>
		<path class="st4" d="M815,162.9l3.5,0.2c2.6,0.1,5.2,0,7.7-0.3c2.2-0.2,4.3-1,6.2-2.2c1.6-1.1,3.1-3.4,4.5-6.9
			c1.4-3.5,2-5.6,1.8-6.4L799.9,37.2h30.7l23,77.8l21.8-77.8h29.3L868.6,141c-7,20-12.5,32.4-16.6,37.2s-12.2,7.2-24.4,7.2
			c-2.5,0-4.4,0-5.9-0.1s-3.7-0.1-6.7-0.3L815,162.9z"/>
	</g>
</g>
</svg>
